<svg width="600" height="100" viewBox="0 0 600 100" fill="none" xmlns="http://www.w3.org/2000/svg">
<rect width="600" height="100" rx="20" fill="#2F3B44"/>
<path d="M131.824 46.512V58H130.96C130.827 58 130.715 57.976 130.624 57.928C130.539 57.88 130.451 57.8027 130.36 57.696L123.872 49.304C123.883 49.448 123.891 49.5893 123.896 49.728C123.907 49.8667 123.912 49.9973 123.912 50.12V58H122.416V46.512H123.296C123.445 46.512 123.557 46.5307 123.632 46.568C123.707 46.6 123.789 46.6773 123.88 46.8L130.384 55.2C130.368 55.0453 130.355 54.896 130.344 54.752C130.339 54.6027 130.336 54.464 130.336 54.336V46.512H131.824ZM137.56 49.744C138.157 49.744 138.696 49.8427 139.176 50.04C139.661 50.232 140.072 50.512 140.408 50.88C140.749 51.2427 141.011 51.6827 141.192 52.2C141.373 52.712 141.464 53.288 141.464 53.928C141.464 54.568 141.373 55.1467 141.192 55.664C141.011 56.1813 140.749 56.6213 140.408 56.984C140.072 57.3467 139.661 57.6267 139.176 57.824C138.696 58.016 138.157 58.112 137.56 58.112C136.957 58.112 136.413 58.016 135.928 57.824C135.448 57.6267 135.037 57.3467 134.696 56.984C134.355 56.6213 134.091 56.1813 133.904 55.664C133.723 55.1467 133.632 54.568 133.632 53.928C133.632 53.288 133.723 52.712 133.904 52.2C134.091 51.6827 134.355 51.2427 134.696 50.88C135.037 50.512 135.448 50.232 135.928 50.04C136.413 49.8427 136.957 49.744 137.56 49.744ZM137.56 56.896C138.328 56.896 138.901 56.6373 139.28 56.12C139.659 55.6027 139.848 54.8747 139.848 53.936C139.848 52.9973 139.659 52.2693 139.28 51.752C138.901 51.2293 138.328 50.968 137.56 50.968C136.781 50.968 136.2 51.2293 135.816 51.752C135.437 52.2693 135.248 52.9973 135.248 53.936C135.248 54.8747 135.437 55.6027 135.816 56.12C136.2 56.6373 136.781 56.896 137.56 56.896ZM154.956 58H153.388V51.136H149.308V55.896C149.308 56.216 149.386 56.456 149.54 56.616C149.7 56.7707 149.903 56.848 150.148 56.848C150.292 56.848 150.415 56.8293 150.516 56.792C150.623 56.7547 150.714 56.7147 150.788 56.672C150.863 56.624 150.927 56.5813 150.98 56.544C151.034 56.5067 151.082 56.488 151.124 56.488C151.178 56.488 151.218 56.5013 151.244 56.528C151.276 56.5493 151.308 56.5867 151.34 56.64L151.804 57.392C151.548 57.6267 151.244 57.808 150.892 57.936C150.54 58.064 150.175 58.128 149.796 58.128C149.14 58.128 148.634 57.944 148.276 57.576C147.924 57.208 147.748 56.6827 147.748 56V51.136H146.804C146.714 51.136 146.636 51.1093 146.572 51.056C146.514 50.9973 146.484 50.912 146.484 50.8V50.168L147.812 49.984L148.156 47.56C148.178 47.4693 148.218 47.4 148.276 47.352C148.34 47.2987 148.42 47.272 148.516 47.272H149.308V50H154.956V58ZM155.308 47.312C155.308 47.456 155.279 47.5947 155.22 47.728C155.162 47.856 155.082 47.9707 154.98 48.072C154.884 48.168 154.77 48.2453 154.636 48.304C154.503 48.3573 154.364 48.384 154.22 48.384C154.076 48.384 153.94 48.3573 153.812 48.304C153.684 48.2453 153.57 48.168 153.468 48.072C153.372 47.9707 153.295 47.856 153.236 47.728C153.183 47.5947 153.156 47.456 153.156 47.312C153.156 47.1627 153.183 47.0213 153.236 46.888C153.295 46.7547 153.372 46.64 153.468 46.544C153.57 46.4427 153.684 46.3653 153.812 46.312C153.94 46.2533 154.076 46.224 154.22 46.224C154.364 46.224 154.503 46.2533 154.636 46.312C154.77 46.3653 154.884 46.4427 154.98 46.544C155.082 46.64 155.162 46.7547 155.22 46.888C155.279 47.0213 155.308 47.1627 155.308 47.312ZM162.605 53.032C162.605 52.7227 162.56 52.4373 162.469 52.176C162.384 51.9147 162.256 51.688 162.085 51.496C161.914 51.304 161.706 51.1547 161.461 51.048C161.216 50.9413 160.933 50.888 160.613 50.888C159.957 50.888 159.44 51.0773 159.061 51.456C158.688 51.8347 158.45 52.36 158.349 53.032H162.605ZM163.893 56.84C163.701 57.064 163.48 57.2587 163.229 57.424C162.978 57.584 162.712 57.7147 162.429 57.816C162.146 57.9173 161.853 57.992 161.549 58.04C161.25 58.088 160.954 58.112 160.661 58.112C160.101 58.112 159.581 58.0187 159.101 57.832C158.626 57.64 158.213 57.3627 157.861 57C157.514 56.632 157.242 56.1787 157.045 55.64C156.853 55.096 156.757 54.472 156.757 53.768C156.757 53.2027 156.845 52.6773 157.021 52.192C157.197 51.7013 157.448 51.2747 157.773 50.912C158.104 50.5493 158.506 50.264 158.981 50.056C159.456 49.848 159.989 49.744 160.581 49.744C161.077 49.744 161.533 49.8267 161.949 49.992C162.37 50.152 162.733 50.3867 163.037 50.696C163.341 51.0053 163.578 51.3867 163.749 51.84C163.925 52.2933 164.013 52.8107 164.013 53.392C164.013 53.632 163.986 53.7947 163.933 53.88C163.88 53.96 163.781 54 163.637 54H158.309C158.325 54.4853 158.394 54.9093 158.517 55.272C158.64 55.6293 158.808 55.928 159.021 56.168C159.24 56.408 159.498 56.5867 159.797 56.704C160.096 56.8213 160.429 56.88 160.797 56.88C161.144 56.88 161.442 56.84 161.693 56.76C161.949 56.68 162.168 56.5947 162.349 56.504C162.536 56.408 162.69 56.32 162.813 56.24C162.941 56.16 163.053 56.12 163.149 56.12C163.277 56.12 163.376 56.168 163.445 56.264L163.893 56.84ZM167.154 51C167.33 50.8133 167.514 50.6427 167.706 50.488C167.898 50.3333 168.1 50.2027 168.314 50.096C168.532 49.984 168.764 49.8987 169.01 49.84C169.26 49.776 169.527 49.744 169.81 49.744C170.258 49.744 170.65 49.8187 170.986 49.968C171.327 50.1173 171.612 50.328 171.842 50.6C172.071 50.8667 172.244 51.1893 172.362 51.568C172.479 51.9467 172.538 52.3653 172.538 52.824V58H170.97V52.824C170.97 52.2427 170.836 51.792 170.57 51.472C170.303 51.1467 169.895 50.984 169.346 50.984C168.946 50.984 168.57 51.08 168.218 51.272C167.871 51.4587 167.548 51.7147 167.25 52.04V58H165.69V49.872H166.626C166.844 49.872 166.98 49.976 167.034 50.184L167.154 51ZM180.027 53.032C180.027 52.7227 179.982 52.4373 179.891 52.176C179.806 51.9147 179.678 51.688 179.507 51.496C179.336 51.304 179.128 51.1547 178.883 51.048C178.638 50.9413 178.355 50.888 178.035 50.888C177.379 50.888 176.862 51.0773 176.483 51.456C176.11 51.8347 175.872 52.36 175.771 53.032H180.027ZM181.315 56.84C181.123 57.064 180.902 57.2587 180.651 57.424C180.4 57.584 180.134 57.7147 179.851 57.816C179.568 57.9173 179.275 57.992 178.971 58.04C178.672 58.088 178.376 58.112 178.083 58.112C177.523 58.112 177.003 58.0187 176.523 57.832C176.048 57.64 175.635 57.3627 175.283 57C174.936 56.632 174.664 56.1787 174.467 55.64C174.275 55.096 174.179 54.472 174.179 53.768C174.179 53.2027 174.267 52.6773 174.443 52.192C174.619 51.7013 174.87 51.2747 175.195 50.912C175.526 50.5493 175.928 50.264 176.403 50.056C176.878 49.848 177.411 49.744 178.003 49.744C178.499 49.744 178.955 49.8267 179.371 49.992C179.792 50.152 180.155 50.3867 180.459 50.696C180.763 51.0053 181 51.3867 181.171 51.84C181.347 52.2933 181.435 52.8107 181.435 53.392C181.435 53.632 181.408 53.7947 181.355 53.88C181.302 53.96 181.203 54 181.059 54H175.731C175.747 54.4853 175.816 54.9093 175.939 55.272C176.062 55.6293 176.23 55.928 176.443 56.168C176.662 56.408 176.92 56.5867 177.219 56.704C177.518 56.8213 177.851 56.88 178.219 56.88C178.566 56.88 178.864 56.84 179.115 56.76C179.371 56.68 179.59 56.5947 179.771 56.504C179.958 56.408 180.112 56.32 180.235 56.24C180.363 56.16 180.475 56.12 180.571 56.12C180.699 56.12 180.798 56.168 180.867 56.264L181.315 56.84ZM187.904 51.272C187.861 51.3413 187.816 51.392 187.768 51.424C187.72 51.4507 187.658 51.464 187.584 51.464C187.498 51.464 187.402 51.4347 187.296 51.376C187.194 51.3173 187.069 51.2533 186.92 51.184C186.776 51.1147 186.605 51.0507 186.408 50.992C186.21 50.9333 185.976 50.904 185.704 50.904C185.48 50.904 185.274 50.9333 185.088 50.992C184.906 51.0453 184.752 51.1227 184.624 51.224C184.496 51.32 184.397 51.4373 184.328 51.576C184.258 51.7093 184.224 51.8533 184.224 52.008C184.224 52.2107 184.282 52.3787 184.4 52.512C184.522 52.6453 184.68 52.76 184.872 52.856C185.069 52.952 185.29 53.04 185.536 53.12C185.786 53.1947 186.04 53.2747 186.296 53.36C186.557 53.4453 186.81 53.544 187.056 53.656C187.306 53.7627 187.528 53.8987 187.72 54.064C187.917 54.224 188.074 54.4187 188.192 54.648C188.314 54.8773 188.376 55.1573 188.376 55.488C188.376 55.8667 188.306 56.2187 188.168 56.544C188.034 56.864 187.834 57.1413 187.568 57.376C187.306 57.6107 186.981 57.7947 186.592 57.928C186.202 58.0613 185.757 58.128 185.256 58.128C184.696 58.128 184.178 58.0347 183.704 57.848C183.229 57.6613 182.832 57.424 182.512 57.136L182.88 56.536C182.922 56.4613 182.976 56.4053 183.04 56.368C183.104 56.3253 183.189 56.304 183.296 56.304C183.397 56.304 183.501 56.3413 183.608 56.416C183.714 56.4907 183.842 56.5733 183.992 56.664C184.141 56.7493 184.322 56.8293 184.536 56.904C184.749 56.9733 185.016 57.008 185.336 57.008C185.602 57.008 185.834 56.976 186.032 56.912C186.229 56.8427 186.392 56.752 186.52 56.64C186.653 56.5227 186.752 56.3893 186.816 56.24C186.88 56.0907 186.912 55.9333 186.912 55.768C186.912 55.5547 186.85 55.3787 186.728 55.24C186.61 55.096 186.453 54.9733 186.256 54.872C186.064 54.7707 185.842 54.6827 185.592 54.608C185.341 54.5333 185.085 54.4533 184.824 54.368C184.562 54.2827 184.306 54.184 184.056 54.072C183.805 53.96 183.581 53.8187 183.384 53.648C183.192 53.4773 183.034 53.2693 182.912 53.024C182.794 52.7787 182.736 52.48 182.736 52.128C182.736 51.8133 182.8 51.512 182.928 51.224C183.061 50.936 183.25 50.6827 183.496 50.464C183.746 50.2453 184.053 50.072 184.416 49.944C184.784 49.8107 185.202 49.744 185.672 49.744C186.21 49.744 186.696 49.8293 187.128 50C187.565 50.1707 187.938 50.4053 188.248 50.704L187.904 51.272ZM198.904 51.272C198.861 51.3413 198.816 51.392 198.768 51.424C198.72 51.4507 198.658 51.464 198.584 51.464C198.498 51.464 198.402 51.4347 198.296 51.376C198.194 51.3173 198.069 51.2533 197.92 51.184C197.776 51.1147 197.605 51.0507 197.408 50.992C197.21 50.9333 196.976 50.904 196.704 50.904C196.48 50.904 196.274 50.9333 196.088 50.992C195.906 51.0453 195.752 51.1227 195.624 51.224C195.496 51.32 195.397 51.4373 195.328 51.576C195.258 51.7093 195.224 51.8533 195.224 52.008C195.224 52.2107 195.282 52.3787 195.4 52.512C195.522 52.6453 195.68 52.76 195.872 52.856C196.069 52.952 196.29 53.04 196.536 53.12C196.786 53.1947 197.04 53.2747 197.296 53.36C197.557 53.4453 197.81 53.544 198.056 53.656C198.306 53.7627 198.528 53.8987 198.72 54.064C198.917 54.224 199.074 54.4187 199.192 54.648C199.314 54.8773 199.376 55.1573 199.376 55.488C199.376 55.8667 199.306 56.2187 199.168 56.544C199.034 56.864 198.834 57.1413 198.568 57.376C198.306 57.6107 197.981 57.7947 197.592 57.928C197.202 58.0613 196.757 58.128 196.256 58.128C195.696 58.128 195.178 58.0347 194.704 57.848C194.229 57.6613 193.832 57.424 193.512 57.136L193.88 56.536C193.922 56.4613 193.976 56.4053 194.04 56.368C194.104 56.3253 194.189 56.304 194.296 56.304C194.397 56.304 194.501 56.3413 194.608 56.416C194.714 56.4907 194.842 56.5733 194.992 56.664C195.141 56.7493 195.322 56.8293 195.536 56.904C195.749 56.9733 196.016 57.008 196.336 57.008C196.602 57.008 196.834 56.976 197.032 56.912C197.229 56.8427 197.392 56.752 197.52 56.64C197.653 56.5227 197.752 56.3893 197.816 56.24C197.88 56.0907 197.912 55.9333 197.912 55.768C197.912 55.5547 197.85 55.3787 197.728 55.24C197.61 55.096 197.453 54.9733 197.256 54.872C197.064 54.7707 196.842 54.6827 196.592 54.608C196.341 54.5333 196.085 54.4533 195.824 54.368C195.562 54.2827 195.306 54.184 195.056 54.072C194.805 53.96 194.581 53.8187 194.384 53.648C194.192 53.4773 194.034 53.2693 193.912 53.024C193.794 52.7787 193.736 52.48 193.736 52.128C193.736 51.8133 193.8 51.512 193.928 51.224C194.061 50.936 194.25 50.6827 194.496 50.464C194.746 50.2453 195.053 50.072 195.416 49.944C195.784 49.8107 196.202 49.744 196.672 49.744C197.21 49.744 197.696 49.8293 198.128 50C198.565 50.1707 198.938 50.4053 199.248 50.704L198.904 51.272ZM207.825 49.872V58H206.889C206.675 58 206.537 57.896 206.473 57.688L206.361 56.872C206.185 57.0587 206.001 57.2293 205.809 57.384C205.617 57.5387 205.411 57.672 205.193 57.784C204.974 57.8907 204.742 57.9733 204.497 58.032C204.251 58.096 203.987 58.128 203.705 58.128C203.257 58.128 202.862 58.0533 202.521 57.904C202.185 57.7547 201.902 57.5467 201.673 57.28C201.443 57.008 201.27 56.6827 201.153 56.304C201.035 55.9253 200.977 55.5067 200.977 55.048V49.872H202.545V55.048C202.545 55.6293 202.678 56.0827 202.945 56.408C203.211 56.728 203.619 56.888 204.169 56.888C204.569 56.888 204.942 56.7947 205.289 56.608C205.635 56.416 205.961 56.1547 206.265 55.824V49.872H207.825ZM210.546 58V51.152L209.698 51.048C209.576 51.0213 209.474 50.9787 209.394 50.92C209.32 50.856 209.282 50.7653 209.282 50.648V50H210.546V49.608C210.546 49.112 210.624 48.656 210.778 48.24C210.938 47.8187 211.176 47.456 211.49 47.152C211.81 46.848 212.205 46.6133 212.674 46.448C213.149 46.2773 213.704 46.192 214.338 46.192C214.541 46.192 214.754 46.2053 214.978 46.232C215.202 46.2587 215.392 46.2987 215.546 46.352L215.49 47.168C215.48 47.2747 215.413 47.3307 215.29 47.336C215.168 47.3413 214.997 47.344 214.778 47.344C214.293 47.344 213.88 47.392 213.538 47.488C213.197 47.584 212.917 47.728 212.698 47.92C212.48 48.112 212.32 48.3547 212.218 48.648C212.117 48.936 212.066 49.272 212.066 49.656V50H217.01V58H215.442V51.136H212.114V58H210.546ZM224.964 51.392C224.916 51.4507 224.868 51.4987 224.82 51.536C224.777 51.568 224.713 51.584 224.628 51.584C224.543 51.584 224.452 51.552 224.356 51.488C224.265 51.4187 224.148 51.3467 224.004 51.272C223.865 51.192 223.695 51.12 223.492 51.056C223.295 50.9867 223.049 50.952 222.756 50.952C222.372 50.952 222.033 51.0213 221.74 51.16C221.447 51.2987 221.201 51.496 221.004 51.752C220.812 52.008 220.665 52.32 220.564 52.688C220.463 53.056 220.412 53.4693 220.412 53.928C220.412 54.4027 220.465 54.8267 220.572 55.2C220.679 55.568 220.831 55.88 221.028 56.136C221.225 56.3867 221.465 56.5787 221.748 56.712C222.031 56.84 222.345 56.904 222.692 56.904C223.028 56.904 223.305 56.864 223.524 56.784C223.743 56.6987 223.924 56.608 224.068 56.512C224.212 56.416 224.332 56.328 224.428 56.248C224.524 56.1627 224.623 56.12 224.724 56.12C224.852 56.12 224.951 56.168 225.02 56.264L225.468 56.84C225.281 57.0693 225.071 57.264 224.836 57.424C224.607 57.584 224.361 57.7147 224.1 57.816C223.839 57.9173 223.564 57.992 223.276 58.04C222.993 58.088 222.705 58.112 222.412 58.112C221.905 58.112 221.431 58.0187 220.988 57.832C220.551 57.6453 220.169 57.3733 219.844 57.016C219.524 56.6587 219.271 56.2213 219.084 55.704C218.897 55.1813 218.804 54.5893 218.804 53.928C218.804 53.3253 218.887 52.768 219.052 52.256C219.223 51.744 219.471 51.304 219.796 50.936C220.127 50.5627 220.532 50.272 221.012 50.064C221.492 49.8507 222.041 49.744 222.66 49.744C223.241 49.744 223.753 49.8373 224.196 50.024C224.639 50.2107 225.033 50.4747 225.38 50.816L224.964 51.392ZM228.556 49.872V58H226.996V49.872H228.556ZM228.852 47.36C228.852 47.504 228.823 47.6427 228.764 47.776C228.705 47.904 228.625 48.0187 228.524 48.12C228.428 48.216 228.313 48.2933 228.18 48.352C228.047 48.4053 227.908 48.432 227.764 48.432C227.62 48.432 227.484 48.4053 227.356 48.352C227.228 48.2933 227.113 48.216 227.012 48.12C226.916 48.0187 226.839 47.904 226.78 47.776C226.727 47.6427 226.7 47.504 226.7 47.36C226.7 47.2107 226.727 47.072 226.78 46.944C226.839 46.8107 226.916 46.696 227.012 46.6C227.113 46.4987 227.228 46.4213 227.356 46.368C227.484 46.3093 227.62 46.28 227.764 46.28C227.908 46.28 228.047 46.3093 228.18 46.368C228.313 46.4213 228.428 46.4987 228.524 46.6C228.625 46.696 228.705 46.8107 228.764 46.944C228.823 47.072 228.852 47.2107 228.852 47.36ZM236.199 53.032C236.199 52.7227 236.153 52.4373 236.063 52.176C235.977 51.9147 235.849 51.688 235.679 51.496C235.508 51.304 235.3 51.1547 235.055 51.048C234.809 50.9413 234.527 50.888 234.207 50.888C233.551 50.888 233.033 51.0773 232.655 51.456C232.281 51.8347 232.044 52.36 231.943 53.032H236.199ZM237.487 56.84C237.295 57.064 237.073 57.2587 236.823 57.424C236.572 57.584 236.305 57.7147 236.023 57.816C235.74 57.9173 235.447 57.992 235.143 58.04C234.844 58.088 234.548 58.112 234.255 58.112C233.695 58.112 233.175 58.0187 232.695 57.832C232.22 57.64 231.807 57.3627 231.455 57C231.108 56.632 230.836 56.1787 230.639 55.64C230.447 55.096 230.351 54.472 230.351 53.768C230.351 53.2027 230.439 52.6773 230.615 52.192C230.791 51.7013 231.041 51.2747 231.367 50.912C231.697 50.5493 232.1 50.264 232.575 50.056C233.049 49.848 233.583 49.744 234.175 49.744C234.671 49.744 235.127 49.8267 235.543 49.992C235.964 50.152 236.327 50.3867 236.631 50.696C236.935 51.0053 237.172 51.3867 237.343 51.84C237.519 52.2933 237.607 52.8107 237.607 53.392C237.607 53.632 237.58 53.7947 237.527 53.88C237.473 53.96 237.375 54 237.231 54H231.903C231.919 54.4853 231.988 54.9093 232.111 55.272C232.233 55.6293 232.401 55.928 232.615 56.168C232.833 56.408 233.092 56.5867 233.391 56.704C233.689 56.8213 234.023 56.88 234.391 56.88C234.737 56.88 235.036 56.84 235.287 56.76C235.543 56.68 235.761 56.5947 235.943 56.504C236.129 56.408 236.284 56.32 236.407 56.24C236.535 56.16 236.647 56.12 236.743 56.12C236.871 56.12 236.969 56.168 237.039 56.264L237.487 56.84ZM240.748 51C240.924 50.8133 241.108 50.6427 241.3 50.488C241.492 50.3333 241.694 50.2027 241.908 50.096C242.126 49.984 242.358 49.8987 242.604 49.84C242.854 49.776 243.121 49.744 243.404 49.744C243.852 49.744 244.244 49.8187 244.58 49.968C244.921 50.1173 245.206 50.328 245.436 50.6C245.665 50.8667 245.838 51.1893 245.956 51.568C246.073 51.9467 246.132 52.3653 246.132 52.824V58H244.564V52.824C244.564 52.2427 244.43 51.792 244.164 51.472C243.897 51.1467 243.489 50.984 242.94 50.984C242.54 50.984 242.164 51.08 241.812 51.272C241.465 51.4587 241.142 51.7147 240.844 52.04V58H239.284V49.872H240.22C240.438 49.872 240.574 49.976 240.628 50.184L240.748 51ZM250.671 58.128C250.015 58.128 249.509 57.944 249.151 57.576C248.799 57.208 248.623 56.6827 248.623 56V51.136H247.679C247.589 51.136 247.511 51.1093 247.447 51.056C247.389 50.9973 247.359 50.912 247.359 50.8V50.168L248.679 49.984L249.031 47.56C249.053 47.4693 249.093 47.4 249.151 47.352C249.215 47.2987 249.295 47.272 249.391 47.272H250.183V50H252.487V51.136H250.183V55.896C250.183 56.216 250.261 56.456 250.415 56.616C250.575 56.7707 250.778 56.848 251.023 56.848C251.167 56.848 251.29 56.8293 251.391 56.792C251.498 56.7547 251.589 56.7147 251.663 56.672C251.738 56.624 251.802 56.5813 251.855 56.544C251.909 56.5067 251.957 56.488 251.999 56.488C252.053 56.488 252.093 56.5013 252.119 56.528C252.151 56.5493 252.183 56.5867 252.215 56.64L252.679 57.392C252.423 57.6267 252.119 57.808 251.767 57.936C251.415 58.064 251.05 58.128 250.671 58.128ZM259.261 53.032C259.261 52.7227 259.216 52.4373 259.125 52.176C259.04 51.9147 258.912 51.688 258.741 51.496C258.571 51.304 258.363 51.1547 258.117 51.048C257.872 50.9413 257.589 50.888 257.269 50.888C256.613 50.888 256.096 51.0773 255.717 51.456C255.344 51.8347 255.107 52.36 255.005 53.032H259.261ZM260.549 56.84C260.357 57.064 260.136 57.2587 259.885 57.424C259.635 57.584 259.368 57.7147 259.085 57.816C258.803 57.9173 258.509 57.992 258.205 58.04C257.907 58.088 257.611 58.112 257.317 58.112C256.757 58.112 256.237 58.0187 255.757 57.832C255.283 57.64 254.869 57.3627 254.517 57C254.171 56.632 253.899 56.1787 253.701 55.64C253.509 55.096 253.413 54.472 253.413 53.768C253.413 53.2027 253.501 52.6773 253.677 52.192C253.853 51.7013 254.104 51.2747 254.429 50.912C254.76 50.5493 255.163 50.264 255.637 50.056C256.112 49.848 256.645 49.744 257.237 49.744C257.733 49.744 258.189 49.8267 258.605 49.992C259.027 50.152 259.389 50.3867 259.693 50.696C259.997 51.0053 260.235 51.3867 260.405 51.84C260.581 52.2933 260.669 52.8107 260.669 53.392C260.669 53.632 260.643 53.7947 260.589 53.88C260.536 53.96 260.437 54 260.293 54H254.965C254.981 54.4853 255.051 54.9093 255.173 55.272C255.296 55.6293 255.464 55.928 255.677 56.168C255.896 56.408 256.155 56.5867 256.453 56.704C256.752 56.8213 257.085 56.88 257.453 56.88C257.8 56.88 258.099 56.84 258.349 56.76C258.605 56.68 258.824 56.5947 259.005 56.504C259.192 56.408 259.347 56.32 259.469 56.24C259.597 56.16 259.709 56.12 259.805 56.12C259.933 56.12 260.032 56.168 260.101 56.264L260.549 56.84ZM267.138 51.272C267.095 51.3413 267.05 51.392 267.002 51.424C266.954 51.4507 266.893 51.464 266.818 51.464C266.733 51.464 266.637 51.4347 266.53 51.376C266.429 51.3173 266.303 51.2533 266.154 51.184C266.01 51.1147 265.839 51.0507 265.642 50.992C265.445 50.9333 265.21 50.904 264.938 50.904C264.714 50.904 264.509 50.9333 264.322 50.992C264.141 51.0453 263.986 51.1227 263.858 51.224C263.73 51.32 263.631 51.4373 263.562 51.576C263.493 51.7093 263.458 51.8533 263.458 52.008C263.458 52.2107 263.517 52.3787 263.634 52.512C263.757 52.6453 263.914 52.76 264.106 52.856C264.303 52.952 264.525 53.04 264.77 53.12C265.021 53.1947 265.274 53.2747 265.53 53.36C265.791 53.4453 266.045 53.544 266.29 53.656C266.541 53.7627 266.762 53.8987 266.954 54.064C267.151 54.224 267.309 54.4187 267.426 54.648C267.549 54.8773 267.61 55.1573 267.61 55.488C267.61 55.8667 267.541 56.2187 267.402 56.544C267.269 56.864 267.069 57.1413 266.802 57.376C266.541 57.6107 266.215 57.7947 265.826 57.928C265.437 58.0613 264.991 58.128 264.49 58.128C263.93 58.128 263.413 58.0347 262.938 57.848C262.463 57.6613 262.066 57.424 261.746 57.136L262.114 56.536C262.157 56.4613 262.21 56.4053 262.274 56.368C262.338 56.3253 262.423 56.304 262.53 56.304C262.631 56.304 262.735 56.3413 262.842 56.416C262.949 56.4907 263.077 56.5733 263.226 56.664C263.375 56.7493 263.557 56.8293 263.77 56.904C263.983 56.9733 264.25 57.008 264.57 57.008C264.837 57.008 265.069 56.976 265.266 56.912C265.463 56.8427 265.626 56.752 265.754 56.64C265.887 56.5227 265.986 56.3893 266.05 56.24C266.114 56.0907 266.146 55.9333 266.146 55.768C266.146 55.5547 266.085 55.3787 265.962 55.24C265.845 55.096 265.687 54.9733 265.49 54.872C265.298 54.7707 265.077 54.6827 264.826 54.608C264.575 54.5333 264.319 54.4533 264.058 54.368C263.797 54.2827 263.541 54.184 263.29 54.072C263.039 53.96 262.815 53.8187 262.618 53.648C262.426 53.4773 262.269 53.2693 262.146 53.024C262.029 52.7787 261.97 52.48 261.97 52.128C261.97 51.8133 262.034 51.512 262.162 51.224C262.295 50.936 262.485 50.6827 262.73 50.464C262.981 50.2453 263.287 50.072 263.65 49.944C264.018 49.8107 264.437 49.744 264.906 49.744C265.445 49.744 265.93 49.8293 266.362 50C266.799 50.1707 267.173 50.4053 267.482 50.704L267.138 51.272ZM278.146 56.632C278.605 56.632 279.015 56.5547 279.378 56.4C279.741 56.2453 280.047 56.0293 280.298 55.752C280.549 55.4693 280.741 55.136 280.874 54.752C281.007 54.3627 281.074 53.9333 281.074 53.464V46.512H282.77V53.464C282.77 54.136 282.663 54.7573 282.45 55.328C282.237 55.8987 281.93 56.392 281.53 56.808C281.13 57.224 280.645 57.5493 280.074 57.784C279.503 58.0187 278.861 58.136 278.146 58.136C277.431 58.136 276.789 58.0187 276.218 57.784C275.647 57.5493 275.162 57.224 274.762 56.808C274.362 56.392 274.055 55.8987 273.842 55.328C273.629 54.7573 273.522 54.136 273.522 53.464V46.512H275.226V53.456C275.226 53.9253 275.29 54.3547 275.418 54.744C275.551 55.1333 275.743 55.4693 275.994 55.752C276.245 56.0293 276.551 56.2453 276.914 56.4C277.277 56.5547 277.687 56.632 278.146 56.632ZM293.295 47.936H289.647V58H287.951V47.936H284.287V46.512H293.295V47.936ZM298.427 52.424C298.859 52.424 299.238 52.368 299.563 52.256C299.894 52.144 300.169 51.9867 300.387 51.784C300.611 51.576 300.779 51.3307 300.891 51.048C301.003 50.76 301.059 50.4427 301.059 50.096C301.059 49.3973 300.841 48.848 300.403 48.448C299.971 48.048 299.313 47.848 298.427 47.848H296.651V52.424H298.427ZM298.427 46.512C299.163 46.512 299.803 46.5973 300.347 46.768C300.891 46.9387 301.342 47.1813 301.699 47.496C302.057 47.8053 302.321 48.1813 302.491 48.624C302.667 49.0667 302.755 49.5573 302.755 50.096C302.755 50.6347 302.662 51.1307 302.475 51.584C302.289 52.032 302.014 52.4187 301.651 52.744C301.289 53.0693 300.835 53.3227 300.291 53.504C299.753 53.68 299.131 53.768 298.427 53.768H296.651V58H294.947V46.512H298.427ZM309.605 51.392C309.557 51.4507 309.509 51.4987 309.461 51.536C309.418 51.568 309.354 51.584 309.269 51.584C309.183 51.584 309.093 51.552 308.997 51.488C308.906 51.4187 308.789 51.3467 308.645 51.272C308.506 51.192 308.335 51.12 308.133 51.056C307.935 50.9867 307.69 50.952 307.397 50.952C307.013 50.952 306.674 51.0213 306.381 51.16C306.087 51.2987 305.842 51.496 305.645 51.752C305.453 52.008 305.306 52.32 305.205 52.688C305.103 53.056 305.053 53.4693 305.053 53.928C305.053 54.4027 305.106 54.8267 305.213 55.2C305.319 55.568 305.471 55.88 305.669 56.136C305.866 56.3867 306.106 56.5787 306.389 56.712C306.671 56.84 306.986 56.904 307.332 56.904C307.669 56.904 307.946 56.864 308.165 56.784C308.383 56.6987 308.565 56.608 308.709 56.512C308.853 56.416 308.973 56.328 309.069 56.248C309.165 56.1627 309.263 56.12 309.365 56.12C309.493 56.12 309.591 56.168 309.661 56.264L310.109 56.84C309.922 57.0693 309.711 57.264 309.477 57.424C309.247 57.584 309.002 57.7147 308.741 57.816C308.479 57.9173 308.205 57.992 307.917 58.04C307.634 58.088 307.346 58.112 307.053 58.112C306.546 58.112 306.071 58.0187 305.629 57.832C305.191 57.6453 304.81 57.3733 304.485 57.016C304.165 56.6587 303.911 56.2213 303.725 55.704C303.538 55.1813 303.445 54.5893 303.445 53.928C303.445 53.3253 303.527 52.768 303.693 52.256C303.863 51.744 304.111 51.304 304.437 50.936C304.767 50.5627 305.173 50.272 305.653 50.064C306.133 49.8507 306.682 49.744 307.301 49.744C307.882 49.744 308.394 49.8373 308.837 50.024C309.279 50.2107 309.674 50.4747 310.021 50.816L309.605 51.392ZM314.888 49.744C315.485 49.744 316.024 49.8427 316.504 50.04C316.989 50.232 317.4 50.512 317.736 50.88C318.077 51.2427 318.339 51.6827 318.52 52.2C318.701 52.712 318.792 53.288 318.792 53.928C318.792 54.568 318.701 55.1467 318.52 55.664C318.339 56.1813 318.077 56.6213 317.736 56.984C317.4 57.3467 316.989 57.6267 316.504 57.824C316.024 58.016 315.485 58.112 314.888 58.112C314.285 58.112 313.741 58.016 313.256 57.824C312.776 57.6267 312.365 57.3467 312.024 56.984C311.683 56.6213 311.419 56.1813 311.232 55.664C311.051 55.1467 310.96 54.568 310.96 53.928C310.96 53.288 311.051 52.712 311.232 52.2C311.419 51.6827 311.683 51.2427 312.024 50.88C312.365 50.512 312.776 50.232 313.256 50.04C313.741 49.8427 314.285 49.744 314.888 49.744ZM314.888 56.896C315.656 56.896 316.229 56.6373 316.608 56.12C316.987 55.6027 317.176 54.8747 317.176 53.936C317.176 52.9973 316.987 52.2693 316.608 51.752C316.229 51.2293 315.656 50.968 314.888 50.968C314.109 50.968 313.528 51.2293 313.144 51.752C312.765 52.2693 312.576 52.9973 312.576 53.936C312.576 54.8747 312.765 55.6027 313.144 56.12C313.528 56.6373 314.109 56.896 314.888 56.896ZM322.166 49.872V58H320.606V49.872H322.166ZM322.462 47.36C322.462 47.504 322.432 47.6427 322.374 47.776C322.315 47.904 322.235 48.0187 322.134 48.12C322.038 48.216 321.923 48.2933 321.789 48.352C321.656 48.4053 321.518 48.432 321.374 48.432C321.23 48.432 321.094 48.4053 320.966 48.352C320.838 48.2933 320.723 48.216 320.622 48.12C320.526 48.0187 320.448 47.904 320.39 47.776C320.336 47.6427 320.31 47.504 320.31 47.36C320.31 47.2107 320.336 47.072 320.39 46.944C320.448 46.8107 320.526 46.696 320.622 46.6C320.723 46.4987 320.838 46.4213 320.966 46.368C321.094 46.3093 321.23 46.28 321.374 46.28C321.518 46.28 321.656 46.3093 321.789 46.368C321.923 46.4213 322.038 46.4987 322.134 46.6C322.235 46.696 322.315 46.8107 322.374 46.944C322.432 47.072 322.462 47.2107 322.462 47.36ZM325.888 51C326.064 50.8133 326.248 50.6427 326.44 50.488C326.632 50.3333 326.835 50.2027 327.048 50.096C327.267 49.984 327.499 49.8987 327.744 49.84C327.995 49.776 328.261 49.744 328.544 49.744C328.992 49.744 329.384 49.8187 329.72 49.968C330.061 50.1173 330.347 50.328 330.576 50.6C330.805 50.8667 330.979 51.1893 331.096 51.568C331.213 51.9467 331.272 52.3653 331.272 52.824V58H329.704V52.824C329.704 52.2427 329.571 51.792 329.304 51.472C329.037 51.1467 328.629 50.984 328.08 50.984C327.68 50.984 327.304 51.08 326.952 51.272C326.605 51.4587 326.283 51.7147 325.984 52.04V58H324.424V49.872H325.36C325.579 49.872 325.715 49.976 325.768 50.184L325.888 51ZM338.169 51.272C338.127 51.3413 338.081 51.392 338.033 51.424C337.985 51.4507 337.924 51.464 337.849 51.464C337.764 51.464 337.668 51.4347 337.561 51.376C337.46 51.3173 337.335 51.2533 337.185 51.184C337.041 51.1147 336.871 51.0507 336.673 50.992C336.476 50.9333 336.241 50.904 335.969 50.904C335.745 50.904 335.54 50.9333 335.353 50.992C335.172 51.0453 335.017 51.1227 334.889 51.224C334.761 51.32 334.663 51.4373 334.593 51.576C334.524 51.7093 334.489 51.8533 334.489 52.008C334.489 52.2107 334.548 52.3787 334.665 52.512C334.788 52.6453 334.945 52.76 335.137 52.856C335.335 52.952 335.556 53.04 335.801 53.12C336.052 53.1947 336.305 53.2747 336.561 53.36C336.823 53.4453 337.076 53.544 337.321 53.656C337.572 53.7627 337.793 53.8987 337.985 54.064C338.183 54.224 338.34 54.4187 338.457 54.648C338.58 54.8773 338.641 55.1573 338.641 55.488C338.641 55.8667 338.572 56.2187 338.433 56.544C338.3 56.864 338.1 57.1413 337.833 57.376C337.572 57.6107 337.247 57.7947 336.857 57.928C336.468 58.0613 336.023 58.128 335.521 58.128C334.961 58.128 334.444 58.0347 333.969 57.848C333.495 57.6613 333.097 57.424 332.777 57.136L333.145 56.536C333.188 56.4613 333.241 56.4053 333.305 56.368C333.369 56.3253 333.455 56.304 333.561 56.304C333.663 56.304 333.767 56.3413 333.873 56.416C333.98 56.4907 334.108 56.5733 334.257 56.664C334.407 56.7493 334.588 56.8293 334.801 56.904C335.015 56.9733 335.281 57.008 335.601 57.008C335.868 57.008 336.1 56.976 336.297 56.912C336.495 56.8427 336.657 56.752 336.785 56.64C336.919 56.5227 337.017 56.3893 337.081 56.24C337.145 56.0907 337.177 55.9333 337.177 55.768C337.177 55.5547 337.116 55.3787 336.993 55.24C336.876 55.096 336.719 54.9733 336.521 54.872C336.329 54.7707 336.108 54.6827 335.857 54.608C335.607 54.5333 335.351 54.4533 335.089 54.368C334.828 54.2827 334.572 54.184 334.321 54.072C334.071 53.96 333.847 53.8187 333.649 53.648C333.457 53.4773 333.3 53.2693 333.177 53.024C333.06 52.7787 333.001 52.48 333.001 52.128C333.001 51.8133 333.065 51.512 333.193 51.224C333.327 50.936 333.516 50.6827 333.761 50.464C334.012 50.2453 334.319 50.072 334.681 49.944C335.049 49.8107 335.468 49.744 335.937 49.744C336.476 49.744 336.961 49.8293 337.393 50C337.831 50.1707 338.204 50.4053 338.513 50.704L338.169 51.272ZM344.601 60.728V56.416C344.601 56.176 344.607 55.9413 344.617 55.712C344.628 55.4827 344.641 55.2533 344.657 55.024C344.673 54.7893 344.695 54.5493 344.721 54.304C344.748 54.0533 344.777 53.792 344.809 53.52H345.873C345.905 53.792 345.935 54.0533 345.961 54.304C345.988 54.5493 346.009 54.7893 346.025 55.024C346.041 55.2533 346.055 55.4827 346.065 55.712C346.076 55.9413 346.081 56.176 346.081 56.416V60.728H344.601ZM344.265 50.792C344.265 50.6427 344.292 50.504 344.345 50.376C344.399 50.248 344.471 50.1387 344.561 50.048C344.657 49.952 344.769 49.8773 344.897 49.824C345.025 49.7707 345.164 49.744 345.313 49.744C345.457 49.744 345.593 49.7707 345.721 49.824C345.849 49.8773 345.961 49.952 346.057 50.048C346.153 50.1387 346.228 50.248 346.281 50.376C346.34 50.504 346.369 50.6427 346.369 50.792C346.369 50.9413 346.34 51.08 346.281 51.208C346.228 51.336 346.153 51.448 346.057 51.544C345.961 51.64 345.849 51.7173 345.721 51.776C345.593 51.8293 345.457 51.856 345.313 51.856C345.164 51.856 345.025 51.8293 344.897 51.776C344.769 51.7173 344.657 51.64 344.561 51.544C344.471 51.448 344.399 51.336 344.345 51.208C344.292 51.08 344.265 50.9413 344.265 50.792ZM353.279 51.272C353.236 51.3413 353.191 51.392 353.143 51.424C353.095 51.4507 353.033 51.464 352.959 51.464C352.873 51.464 352.777 51.4347 352.671 51.376C352.569 51.3173 352.444 51.2533 352.295 51.184C352.151 51.1147 351.98 51.0507 351.783 50.992C351.585 50.9333 351.351 50.904 351.079 50.904C350.855 50.904 350.649 50.9333 350.463 50.992C350.281 51.0453 350.127 51.1227 349.999 51.224C349.871 51.32 349.772 51.4373 349.703 51.576C349.633 51.7093 349.599 51.8533 349.599 52.008C349.599 52.2107 349.657 52.3787 349.775 52.512C349.897 52.6453 350.055 52.76 350.247 52.856C350.444 52.952 350.665 53.04 350.911 53.12C351.161 53.1947 351.415 53.2747 351.671 53.36C351.932 53.4453 352.185 53.544 352.431 53.656C352.681 53.7627 352.903 53.8987 353.095 54.064C353.292 54.224 353.449 54.4187 353.567 54.648C353.689 54.8773 353.751 55.1573 353.751 55.488C353.751 55.8667 353.681 56.2187 353.543 56.544C353.409 56.864 353.209 57.1413 352.943 57.376C352.681 57.6107 352.356 57.7947 351.967 57.928C351.577 58.0613 351.132 58.128 350.631 58.128C350.071 58.128 349.553 58.0347 349.079 57.848C348.604 57.6613 348.207 57.424 347.887 57.136L348.255 56.536C348.297 56.4613 348.351 56.4053 348.415 56.368C348.479 56.3253 348.564 56.304 348.671 56.304C348.772 56.304 348.876 56.3413 348.983 56.416C349.089 56.4907 349.217 56.5733 349.367 56.664C349.516 56.7493 349.697 56.8293 349.911 56.904C350.124 56.9733 350.391 57.008 350.711 57.008C350.977 57.008 351.209 56.976 351.407 56.912C351.604 56.8427 351.767 56.752 351.895 56.64C352.028 56.5227 352.127 56.3893 352.191 56.24C352.255 56.0907 352.287 55.9333 352.287 55.768C352.287 55.5547 352.225 55.3787 352.103 55.24C351.985 55.096 351.828 54.9733 351.631 54.872C351.439 54.7707 351.217 54.6827 350.967 54.608C350.716 54.5333 350.46 54.4533 350.199 54.368C349.937 54.2827 349.681 54.184 349.431 54.072C349.18 53.96 348.956 53.8187 348.759 53.648C348.567 53.4773 348.409 53.2693 348.287 53.024C348.169 52.7787 348.111 52.48 348.111 52.128C348.111 51.8133 348.175 51.512 348.303 51.224C348.436 50.936 348.625 50.6827 348.871 50.464C349.121 50.2453 349.428 50.072 349.791 49.944C350.159 49.8107 350.577 49.744 351.047 49.744C351.585 49.744 352.071 49.8293 352.503 50C352.94 50.1707 353.313 50.4053 353.623 50.704L353.279 51.272ZM357.072 49.872V58H355.512V49.872H357.072ZM357.368 47.36C357.368 47.504 357.338 47.6427 357.28 47.776C357.221 47.904 357.141 48.0187 357.04 48.12C356.944 48.216 356.829 48.2933 356.696 48.352C356.562 48.4053 356.424 48.432 356.28 48.432C356.136 48.432 356 48.4053 355.872 48.352C355.744 48.2933 355.629 48.216 355.528 48.12C355.432 48.0187 355.354 47.904 355.296 47.776C355.242 47.6427 355.216 47.504 355.216 47.36C355.216 47.2107 355.242 47.072 355.296 46.944C355.354 46.8107 355.432 46.696 355.528 46.6C355.629 46.4987 355.744 46.4213 355.872 46.368C356 46.3093 356.136 46.28 356.28 46.28C356.424 46.28 356.562 46.3093 356.696 46.368C356.829 46.4213 356.944 46.4987 357.04 46.6C357.141 46.696 357.221 46.8107 357.28 46.944C357.338 47.072 357.368 47.2107 357.368 47.36ZM362.186 53.944C362.464 53.944 362.706 53.9067 362.914 53.832C363.128 53.7573 363.304 53.6533 363.442 53.52C363.586 53.3813 363.693 53.216 363.762 53.024C363.837 52.832 363.874 52.6213 363.874 52.392C363.874 51.9227 363.73 51.5493 363.442 51.272C363.16 50.9893 362.741 50.848 362.186 50.848C361.637 50.848 361.218 50.9893 360.93 51.272C360.648 51.5493 360.506 51.9227 360.506 52.392C360.506 52.6213 360.541 52.832 360.61 53.024C360.685 53.2107 360.792 53.3733 360.93 53.512C361.074 53.6453 361.25 53.752 361.458 53.832C361.672 53.9067 361.914 53.944 362.186 53.944ZM364.674 58.424C364.674 58.232 364.621 58.08 364.514 57.968C364.408 57.8507 364.261 57.76 364.074 57.696C363.893 57.6267 363.68 57.5787 363.434 57.552C363.189 57.52 362.93 57.496 362.658 57.48C362.392 57.464 362.117 57.4507 361.834 57.44C361.552 57.424 361.28 57.3973 361.018 57.36C360.741 57.4987 360.512 57.6667 360.33 57.864C360.154 58.0613 360.066 58.2933 360.066 58.56C360.066 58.7307 360.109 58.8907 360.194 59.04C360.285 59.1893 360.421 59.3173 360.602 59.424C360.789 59.536 361.021 59.6213 361.298 59.68C361.581 59.744 361.917 59.776 362.306 59.776C362.69 59.776 363.029 59.7413 363.322 59.672C363.616 59.608 363.861 59.5147 364.058 59.392C364.261 59.2747 364.413 59.1333 364.514 58.968C364.621 58.8027 364.674 58.6213 364.674 58.424ZM366.258 50.176V50.76C366.258 50.952 366.138 51.072 365.898 51.12L365.026 51.248C365.101 51.4133 365.16 51.5893 365.202 51.776C365.245 51.9573 365.266 52.1493 365.266 52.352C365.266 52.752 365.189 53.1147 365.034 53.44C364.88 53.76 364.666 54.0347 364.394 54.264C364.122 54.4933 363.797 54.6693 363.418 54.792C363.045 54.9147 362.634 54.976 362.186 54.976C361.818 54.976 361.474 54.936 361.154 54.856C360.994 54.952 360.872 55.0587 360.786 55.176C360.706 55.288 360.666 55.4 360.666 55.512C360.666 55.6987 360.744 55.8373 360.898 55.928C361.058 56.0187 361.264 56.0853 361.514 56.128C361.77 56.1653 362.061 56.1893 362.386 56.2C362.717 56.2107 363.05 56.2293 363.386 56.256C363.728 56.2773 364.061 56.32 364.386 56.384C364.717 56.4427 365.008 56.5413 365.258 56.68C365.514 56.8133 365.72 57 365.874 57.24C366.034 57.4747 366.114 57.7813 366.114 58.16C366.114 58.512 366.026 58.8533 365.85 59.184C365.68 59.5147 365.429 59.808 365.098 60.064C364.768 60.32 364.365 60.5253 363.89 60.68C363.416 60.8347 362.877 60.912 362.274 60.912C361.672 60.912 361.146 60.8533 360.698 60.736C360.256 60.6187 359.885 60.4613 359.586 60.264C359.293 60.0667 359.072 59.8373 358.922 59.576C358.778 59.3147 358.706 59.0427 358.706 58.76C358.706 58.3653 358.829 58.032 359.074 57.76C359.32 57.4827 359.658 57.2667 360.09 57.112C359.856 57.0053 359.669 56.8613 359.53 56.68C359.392 56.4933 359.322 56.248 359.322 55.944C359.322 55.8267 359.344 55.7067 359.386 55.584C359.429 55.456 359.493 55.3307 359.578 55.208C359.669 55.08 359.778 54.96 359.906 54.848C360.04 54.736 360.192 54.6347 360.362 54.544C359.962 54.32 359.648 54.024 359.418 53.656C359.189 53.2827 359.074 52.848 359.074 52.352C359.074 51.952 359.152 51.592 359.306 51.272C359.461 50.952 359.674 50.6773 359.946 50.448C360.224 50.2187 360.552 50.0427 360.93 49.92C361.314 49.7973 361.733 49.736 362.186 49.736C362.89 49.736 363.496 49.8827 364.002 50.176H366.258ZM372.058 54.392C371.423 54.4133 370.884 54.464 370.442 54.544C369.999 54.6187 369.639 54.72 369.362 54.848C369.084 54.976 368.884 55.128 368.762 55.304C368.639 55.4747 368.578 55.6667 368.578 55.88C368.578 56.0827 368.61 56.2587 368.674 56.408C368.743 56.552 368.834 56.672 368.946 56.768C369.063 56.8587 369.199 56.9253 369.354 56.968C369.508 57.0107 369.676 57.032 369.858 57.032C370.098 57.032 370.316 57.008 370.514 56.96C370.716 56.912 370.906 56.8453 371.082 56.76C371.258 56.6693 371.426 56.56 371.586 56.432C371.746 56.304 371.903 56.1573 372.058 55.992V54.392ZM367.482 51.008C367.935 50.576 368.426 50.2533 368.954 50.04C369.487 49.8267 370.071 49.72 370.706 49.72C371.17 49.72 371.58 49.7973 371.938 49.952C372.295 50.1013 372.596 50.312 372.842 50.584C373.087 50.856 373.271 51.1813 373.394 51.56C373.522 51.9387 373.586 52.3573 373.586 52.816V58H372.89C372.735 58 372.618 57.976 372.538 57.928C372.458 57.8747 372.394 57.7787 372.346 57.64L372.178 56.928C371.97 57.12 371.764 57.2907 371.562 57.44C371.359 57.584 371.146 57.7093 370.922 57.816C370.703 57.9173 370.468 57.9947 370.218 58.048C369.967 58.1013 369.69 58.128 369.386 58.128C369.066 58.128 368.764 58.0853 368.482 58C368.204 57.9093 367.962 57.7733 367.754 57.592C367.546 57.4107 367.38 57.184 367.258 56.912C367.14 56.64 367.082 56.3227 367.082 55.96C367.082 55.64 367.167 55.3333 367.338 55.04C367.514 54.7413 367.796 54.4747 368.186 54.24C368.58 54.0053 369.092 53.8133 369.722 53.664C370.356 53.5147 371.135 53.4293 372.058 53.408V52.816C372.058 52.2027 371.927 51.744 371.666 51.44C371.404 51.136 371.02 50.984 370.514 50.984C370.172 50.984 369.884 51.0267 369.65 51.112C369.42 51.1973 369.22 51.2933 369.05 51.4C368.884 51.5013 368.738 51.5947 368.61 51.68C368.487 51.7653 368.359 51.808 368.226 51.808C368.119 51.808 368.026 51.7787 367.946 51.72C367.871 51.6613 367.81 51.592 367.762 51.512L367.482 51.008ZM375.674 58V49.872H376.61C376.829 49.872 376.965 49.976 377.018 50.184L377.13 50.96C377.429 50.6027 377.759 50.312 378.122 50.088C378.49 49.8587 378.919 49.744 379.41 49.744C379.949 49.744 380.386 49.8933 380.722 50.192C381.058 50.4853 381.303 50.8853 381.458 51.392C381.575 51.104 381.727 50.856 381.914 50.648C382.101 50.44 382.309 50.2693 382.538 50.136C382.767 50.0027 383.01 49.904 383.266 49.84C383.527 49.776 383.791 49.744 384.058 49.744C384.49 49.744 384.874 49.8133 385.21 49.952C385.551 50.0853 385.839 50.2827 386.074 50.544C386.309 50.8053 386.487 51.128 386.61 51.512C386.733 51.896 386.794 52.3333 386.794 52.824V58H385.226V52.824C385.226 52.216 385.093 51.7573 384.826 51.448C384.565 51.1387 384.181 50.984 383.674 50.984C383.45 50.984 383.237 51.024 383.034 51.104C382.831 51.1787 382.653 51.2933 382.498 51.448C382.349 51.6027 382.229 51.7947 382.138 52.024C382.053 52.2533 382.01 52.52 382.01 52.824V58H380.442V52.824C380.442 52.1947 380.317 51.7307 380.066 51.432C379.815 51.1333 379.447 50.984 378.962 50.984C378.626 50.984 378.314 51.072 378.026 51.248C377.738 51.424 377.474 51.664 377.234 51.968V58H375.674ZM392.357 49.744C392.954 49.744 393.493 49.8427 393.973 50.04C394.458 50.232 394.869 50.512 395.205 50.88C395.546 51.2427 395.808 51.6827 395.989 52.2C396.17 52.712 396.261 53.288 396.261 53.928C396.261 54.568 396.17 55.1467 395.989 55.664C395.808 56.1813 395.546 56.6213 395.205 56.984C394.869 57.3467 394.458 57.6267 393.973 57.824C393.493 58.016 392.954 58.112 392.357 58.112C391.754 58.112 391.21 58.016 390.725 57.824C390.245 57.6267 389.834 57.3467 389.493 56.984C389.152 56.6213 388.888 56.1813 388.701 55.664C388.52 55.1467 388.429 54.568 388.429 53.928C388.429 53.288 388.52 52.712 388.701 52.2C388.888 51.6827 389.152 51.2427 389.493 50.88C389.834 50.512 390.245 50.232 390.725 50.04C391.21 49.8427 391.754 49.744 392.357 49.744ZM392.357 56.896C393.125 56.896 393.698 56.6373 394.077 56.12C394.456 55.6027 394.645 54.8747 394.645 53.936C394.645 52.9973 394.456 52.2693 394.077 51.752C393.698 51.2293 393.125 50.968 392.357 50.968C391.578 50.968 390.997 51.2293 390.613 51.752C390.234 52.2693 390.045 52.9973 390.045 53.936C390.045 54.8747 390.234 55.6027 390.613 56.12C390.997 56.6373 391.578 56.896 392.357 56.896ZM402.794 51.272C402.752 51.3413 402.706 51.392 402.658 51.424C402.61 51.4507 402.549 51.464 402.474 51.464C402.389 51.464 402.293 51.4347 402.186 51.376C402.085 51.3173 401.96 51.2533 401.81 51.184C401.666 51.1147 401.496 51.0507 401.298 50.992C401.101 50.9333 400.866 50.904 400.594 50.904C400.37 50.904 400.165 50.9333 399.978 50.992C399.797 51.0453 399.642 51.1227 399.514 51.224C399.386 51.32 399.288 51.4373 399.218 51.576C399.149 51.7093 399.114 51.8533 399.114 52.008C399.114 52.2107 399.173 52.3787 399.29 52.512C399.413 52.6453 399.57 52.76 399.762 52.856C399.96 52.952 400.181 53.04 400.426 53.12C400.677 53.1947 400.93 53.2747 401.186 53.36C401.448 53.4453 401.701 53.544 401.946 53.656C402.197 53.7627 402.418 53.8987 402.61 54.064C402.808 54.224 402.965 54.4187 403.082 54.648C403.205 54.8773 403.266 55.1573 403.266 55.488C403.266 55.8667 403.197 56.2187 403.058 56.544C402.925 56.864 402.725 57.1413 402.458 57.376C402.197 57.6107 401.872 57.7947 401.482 57.928C401.093 58.0613 400.648 58.128 400.146 58.128C399.586 58.128 399.069 58.0347 398.594 57.848C398.12 57.6613 397.722 57.424 397.402 57.136L397.77 56.536C397.813 56.4613 397.866 56.4053 397.93 56.368C397.994 56.3253 398.08 56.304 398.186 56.304C398.288 56.304 398.392 56.3413 398.498 56.416C398.605 56.4907 398.733 56.5733 398.882 56.664C399.032 56.7493 399.213 56.8293 399.426 56.904C399.64 56.9733 399.906 57.008 400.226 57.008C400.493 57.008 400.725 56.976 400.922 56.912C401.12 56.8427 401.282 56.752 401.41 56.64C401.544 56.5227 401.642 56.3893 401.706 56.24C401.77 56.0907 401.802 55.9333 401.802 55.768C401.802 55.5547 401.741 55.3787 401.618 55.24C401.501 55.096 401.344 54.9733 401.146 54.872C400.954 54.7707 400.733 54.6827 400.482 54.608C400.232 54.5333 399.976 54.4533 399.714 54.368C399.453 54.2827 399.197 54.184 398.946 54.072C398.696 53.96 398.472 53.8187 398.274 53.648C398.082 53.4773 397.925 53.2693 397.802 53.024C397.685 52.7787 397.626 52.48 397.626 52.128C397.626 51.8133 397.69 51.512 397.818 51.224C397.952 50.936 398.141 50.6827 398.386 50.464C398.637 50.2453 398.944 50.072 399.306 49.944C399.674 49.8107 400.093 49.744 400.562 49.744C401.101 49.744 401.586 49.8293 402.018 50C402.456 50.1707 402.829 50.4053 403.138 50.704L402.794 51.272ZM410.634 49.872V58.512C410.634 58.848 410.589 59.16 410.498 59.448C410.413 59.7413 410.274 59.9947 410.082 60.208C409.896 60.4267 409.65 60.5973 409.346 60.72C409.048 60.8427 408.685 60.904 408.258 60.904C408.082 60.904 407.922 60.8907 407.778 60.864C407.629 60.8373 407.48 60.8 407.33 60.752L407.394 59.904C407.416 59.8027 407.464 59.7467 407.538 59.736C407.608 59.7253 407.744 59.72 407.946 59.72C408.357 59.72 408.648 59.6267 408.818 59.44C408.989 59.2533 409.074 58.944 409.074 58.512V49.872H410.634ZM410.93 47.36C410.93 47.504 410.901 47.6427 410.842 47.776C410.784 47.904 410.704 48.0187 410.602 48.12C410.501 48.216 410.384 48.2933 410.25 48.352C410.122 48.4053 409.984 48.432 409.834 48.432C409.69 48.432 409.554 48.4053 409.426 48.352C409.298 48.2933 409.184 48.216 409.082 48.12C408.986 48.0187 408.909 47.904 408.85 47.776C408.797 47.6427 408.77 47.504 408.77 47.36C408.77 47.2107 408.797 47.072 408.85 46.944C408.909 46.8107 408.986 46.696 409.082 46.6C409.184 46.4987 409.298 46.4213 409.426 46.368C409.554 46.3093 409.69 46.28 409.834 46.28C409.984 46.28 410.122 46.3093 410.25 46.368C410.384 46.4213 410.501 46.4987 410.602 46.6C410.704 46.696 410.784 46.8107 410.842 46.944C410.901 47.072 410.93 47.2107 410.93 47.36ZM419.653 49.872V58H418.717C418.504 58 418.365 57.896 418.301 57.688L418.189 56.872C418.013 57.0587 417.829 57.2293 417.637 57.384C417.445 57.5387 417.24 57.672 417.021 57.784C416.802 57.8907 416.57 57.9733 416.325 58.032C416.08 58.096 415.816 58.128 415.533 58.128C415.085 58.128 414.69 58.0533 414.349 57.904C414.013 57.7547 413.73 57.5467 413.501 57.28C413.272 57.008 413.098 56.6827 412.981 56.304C412.864 55.9253 412.805 55.5067 412.805 55.048V49.872H414.373V55.048C414.373 55.6293 414.506 56.0827 414.773 56.408C415.04 56.728 415.448 56.888 415.997 56.888C416.397 56.888 416.77 56.7947 417.117 56.608C417.464 56.416 417.789 56.1547 418.093 55.824V49.872H419.653ZM424.686 53.944C424.964 53.944 425.206 53.9067 425.414 53.832C425.628 53.7573 425.804 53.6533 425.942 53.52C426.086 53.3813 426.193 53.216 426.262 53.024C426.337 52.832 426.374 52.6213 426.374 52.392C426.374 51.9227 426.23 51.5493 425.942 51.272C425.66 50.9893 425.241 50.848 424.686 50.848C424.137 50.848 423.718 50.9893 423.43 51.272C423.148 51.5493 423.006 51.9227 423.006 52.392C423.006 52.6213 423.041 52.832 423.11 53.024C423.185 53.2107 423.292 53.3733 423.43 53.512C423.574 53.6453 423.75 53.752 423.958 53.832C424.172 53.9067 424.414 53.944 424.686 53.944ZM427.174 58.424C427.174 58.232 427.121 58.08 427.014 57.968C426.908 57.8507 426.761 57.76 426.574 57.696C426.393 57.6267 426.18 57.5787 425.934 57.552C425.689 57.52 425.43 57.496 425.158 57.48C424.892 57.464 424.617 57.4507 424.334 57.44C424.052 57.424 423.78 57.3973 423.518 57.36C423.241 57.4987 423.012 57.6667 422.83 57.864C422.654 58.0613 422.566 58.2933 422.566 58.56C422.566 58.7307 422.609 58.8907 422.694 59.04C422.785 59.1893 422.921 59.3173 423.102 59.424C423.289 59.536 423.521 59.6213 423.798 59.68C424.081 59.744 424.417 59.776 424.806 59.776C425.19 59.776 425.529 59.7413 425.822 59.672C426.116 59.608 426.361 59.5147 426.558 59.392C426.761 59.2747 426.913 59.1333 427.014 58.968C427.121 58.8027 427.174 58.6213 427.174 58.424ZM428.758 50.176V50.76C428.758 50.952 428.638 51.072 428.398 51.12L427.526 51.248C427.601 51.4133 427.66 51.5893 427.702 51.776C427.745 51.9573 427.766 52.1493 427.766 52.352C427.766 52.752 427.689 53.1147 427.534 53.44C427.38 53.76 427.166 54.0347 426.894 54.264C426.622 54.4933 426.297 54.6693 425.918 54.792C425.545 54.9147 425.134 54.976 424.686 54.976C424.318 54.976 423.974 54.936 423.654 54.856C423.494 54.952 423.372 55.0587 423.286 55.176C423.206 55.288 423.166 55.4 423.166 55.512C423.166 55.6987 423.244 55.8373 423.398 55.928C423.558 56.0187 423.764 56.0853 424.014 56.128C424.27 56.1653 424.561 56.1893 424.886 56.2C425.217 56.2107 425.55 56.2293 425.886 56.256C426.228 56.2773 426.561 56.32 426.886 56.384C427.217 56.4427 427.508 56.5413 427.758 56.68C428.014 56.8133 428.22 57 428.374 57.24C428.534 57.4747 428.614 57.7813 428.614 58.16C428.614 58.512 428.526 58.8533 428.35 59.184C428.18 59.5147 427.929 59.808 427.598 60.064C427.268 60.32 426.865 60.5253 426.39 60.68C425.916 60.8347 425.377 60.912 424.774 60.912C424.172 60.912 423.646 60.8533 423.198 60.736C422.756 60.6187 422.385 60.4613 422.086 60.264C421.793 60.0667 421.572 59.8373 421.422 59.576C421.278 59.3147 421.206 59.0427 421.206 58.76C421.206 58.3653 421.329 58.032 421.574 57.76C421.82 57.4827 422.158 57.2667 422.59 57.112C422.356 57.0053 422.169 56.8613 422.03 56.68C421.892 56.4933 421.822 56.248 421.822 55.944C421.822 55.8267 421.844 55.7067 421.886 55.584C421.929 55.456 421.993 55.3307 422.078 55.208C422.169 55.08 422.278 54.96 422.406 54.848C422.54 54.736 422.692 54.6347 422.862 54.544C422.462 54.32 422.148 54.024 421.918 53.656C421.689 53.2827 421.574 52.848 421.574 52.352C421.574 51.952 421.652 51.592 421.806 51.272C421.961 50.952 422.174 50.6773 422.446 50.448C422.724 50.2187 423.052 50.0427 423.43 49.92C423.814 49.7973 424.233 49.736 424.686 49.736C425.39 49.736 425.996 49.8827 426.502 50.176H428.758ZM434.558 54.392C433.923 54.4133 433.384 54.464 432.942 54.544C432.499 54.6187 432.139 54.72 431.862 54.848C431.584 54.976 431.384 55.128 431.262 55.304C431.139 55.4747 431.078 55.6667 431.078 55.88C431.078 56.0827 431.11 56.2587 431.174 56.408C431.243 56.552 431.334 56.672 431.446 56.768C431.563 56.8587 431.699 56.9253 431.854 56.968C432.008 57.0107 432.176 57.032 432.358 57.032C432.598 57.032 432.816 57.008 433.014 56.96C433.216 56.912 433.406 56.8453 433.582 56.76C433.758 56.6693 433.926 56.56 434.086 56.432C434.246 56.304 434.403 56.1573 434.558 55.992V54.392ZM429.982 51.008C430.435 50.576 430.926 50.2533 431.454 50.04C431.987 49.8267 432.571 49.72 433.206 49.72C433.67 49.72 434.08 49.7973 434.438 49.952C434.795 50.1013 435.096 50.312 435.342 50.584C435.587 50.856 435.771 51.1813 435.894 51.56C436.022 51.9387 436.086 52.3573 436.086 52.816V58H435.39C435.235 58 435.118 57.976 435.038 57.928C434.958 57.8747 434.894 57.7787 434.846 57.64L434.678 56.928C434.47 57.12 434.264 57.2907 434.062 57.44C433.859 57.584 433.646 57.7093 433.422 57.816C433.203 57.9173 432.968 57.9947 432.718 58.048C432.467 58.1013 432.19 58.128 431.886 58.128C431.566 58.128 431.264 58.0853 430.982 58C430.704 57.9093 430.462 57.7733 430.254 57.592C430.046 57.4107 429.88 57.184 429.758 56.912C429.64 56.64 429.582 56.3227 429.582 55.96C429.582 55.64 429.667 55.3333 429.838 55.04C430.014 54.7413 430.296 54.4747 430.686 54.24C431.08 54.0053 431.592 53.8133 432.222 53.664C432.856 53.5147 433.635 53.4293 434.558 53.408V52.816C434.558 52.2027 434.427 51.744 434.166 51.44C433.904 51.136 433.52 50.984 433.014 50.984C432.672 50.984 432.384 51.0267 432.15 51.112C431.92 51.1973 431.72 51.2933 431.55 51.4C431.384 51.5013 431.238 51.5947 431.11 51.68C430.987 51.7653 430.859 51.808 430.726 51.808C430.619 51.808 430.526 51.7787 430.446 51.72C430.371 51.6613 430.31 51.592 430.262 51.512L429.982 51.008ZM439.638 51C439.814 50.8133 439.998 50.6427 440.19 50.488C440.382 50.3333 440.585 50.2027 440.798 50.096C441.017 49.984 441.249 49.8987 441.494 49.84C441.745 49.776 442.011 49.744 442.294 49.744C442.742 49.744 443.134 49.8187 443.47 49.968C443.811 50.1173 444.097 50.328 444.326 50.6C444.555 50.8667 444.729 51.1893 444.846 51.568C444.963 51.9467 445.022 52.3653 445.022 52.824V58H443.454V52.824C443.454 52.2427 443.321 51.792 443.054 51.472C442.787 51.1467 442.379 50.984 441.83 50.984C441.43 50.984 441.054 51.08 440.702 51.272C440.355 51.4587 440.033 51.7147 439.734 52.04V58H438.174V49.872H439.11C439.329 49.872 439.465 49.976 439.518 50.184L439.638 51ZM452.367 51.84C452.111 51.504 451.834 51.2693 451.535 51.136C451.242 51.0027 450.911 50.936 450.543 50.936C449.829 50.936 449.274 51.1947 448.879 51.712C448.49 52.224 448.295 52.9733 448.295 53.96C448.295 54.4773 448.338 54.92 448.423 55.288C448.514 55.6507 448.642 55.9493 448.807 56.184C448.978 56.4133 449.186 56.584 449.431 56.696C449.677 56.8027 449.954 56.856 450.263 56.856C450.717 56.856 451.109 56.7547 451.439 56.552C451.77 56.3493 452.079 56.064 452.367 55.696V51.84ZM453.935 46.192V58H452.991C452.773 58 452.637 57.896 452.583 57.688L452.447 56.752C452.101 57.1627 451.706 57.4933 451.263 57.744C450.826 57.9893 450.319 58.112 449.743 58.112C449.279 58.112 448.858 58.0213 448.479 57.84C448.106 57.6587 447.786 57.3947 447.519 57.048C447.253 56.696 447.047 56.2613 446.903 55.744C446.759 55.2267 446.687 54.632 446.687 53.96C446.687 53.3573 446.767 52.7973 446.927 52.28C447.087 51.7627 447.319 51.3147 447.623 50.936C447.927 50.5573 448.295 50.2613 448.727 50.048C449.159 49.8293 449.647 49.72 450.191 49.72C450.682 49.72 451.098 49.8 451.439 49.96C451.786 50.12 452.095 50.3467 452.367 50.64V46.192H453.935ZM459.576 49.744C460.173 49.744 460.712 49.8427 461.192 50.04C461.677 50.232 462.088 50.512 462.424 50.88C462.765 51.2427 463.026 51.6827 463.208 52.2C463.389 52.712 463.48 53.288 463.48 53.928C463.48 54.568 463.389 55.1467 463.208 55.664C463.026 56.1813 462.765 56.6213 462.424 56.984C462.088 57.3467 461.677 57.6267 461.192 57.824C460.712 58.016 460.173 58.112 459.576 58.112C458.973 58.112 458.429 58.016 457.944 57.824C457.464 57.6267 457.053 57.3467 456.712 56.984C456.37 56.6213 456.106 56.1813 455.92 55.664C455.738 55.1467 455.648 54.568 455.648 53.928C455.648 53.288 455.738 52.712 455.92 52.2C456.106 51.6827 456.37 51.2427 456.712 50.88C457.053 50.512 457.464 50.232 457.944 50.04C458.429 49.8427 458.973 49.744 459.576 49.744ZM459.576 56.896C460.344 56.896 460.917 56.6373 461.296 56.12C461.674 55.6027 461.864 54.8747 461.864 53.936C461.864 52.9973 461.674 52.2693 461.296 51.752C460.917 51.2293 460.344 50.968 459.576 50.968C458.797 50.968 458.216 51.2293 457.832 51.752C457.453 52.2693 457.264 52.9973 457.264 53.936C457.264 54.8747 457.453 55.6027 457.832 56.12C458.216 56.6373 458.797 56.896 459.576 56.896ZM467.053 46.512V51.088C467.053 51.328 467.048 51.5627 467.037 51.792C467.026 52.0213 467.01 52.2533 466.989 52.488C466.973 52.7173 466.952 52.9547 466.925 53.2C466.898 53.4453 466.869 53.704 466.837 53.976H465.781C465.749 53.704 465.72 53.4453 465.693 53.2C465.666 52.9547 465.642 52.7173 465.621 52.488C465.605 52.2533 465.592 52.0213 465.581 51.792C465.57 51.5627 465.565 51.328 465.565 51.088V46.512H467.053ZM465.229 57.064C465.229 56.92 465.256 56.784 465.309 56.656C465.362 56.528 465.437 56.416 465.533 56.32C465.629 56.224 465.741 56.1493 465.869 56.096C465.997 56.0373 466.136 56.008 466.285 56.008C466.429 56.008 466.565 56.0373 466.693 56.096C466.821 56.1493 466.933 56.224 467.029 56.32C467.125 56.416 467.2 56.528 467.253 56.656C467.312 56.784 467.341 56.92 467.341 57.064C467.341 57.2133 467.312 57.352 467.253 57.48C467.2 57.608 467.125 57.72 467.029 57.816C466.933 57.912 466.821 57.9867 466.693 58.04C466.565 58.0933 466.429 58.12 466.285 58.12C466.136 58.12 465.997 58.0933 465.869 58.04C465.741 57.9867 465.629 57.912 465.533 57.816C465.437 57.72 465.362 57.608 465.309 57.48C465.256 57.352 465.229 57.2133 465.229 57.064ZM472.531 59.12H488.531V43.12H472.531V59.12Z" fill="white"/>
<g clip-path="url(#clip0_26_127)">
<path d="M86.9999 59.2857C92.1284 59.2857 96.2857 55.1284 96.2857 50C96.2857 44.8717 92.1284 40.7143 86.9999 40.7143C81.8716 40.7143 77.7142 44.8717 77.7142 50C77.7142 55.1284 81.8716 59.2857 86.9999 59.2857Z" stroke="white" stroke-width="2" stroke-linecap="round" stroke-linejoin="round"/>
<path d="M84.8571 54.2857H89.1428" stroke="white" stroke-width="2" stroke-linecap="round" stroke-linejoin="round"/>
<path d="M87 54.2857V49.2857H85.5714" stroke="white" stroke-width="2" stroke-linecap="round" stroke-linejoin="round"/>
<path d="M87 46.0715C86.8027 46.0715 86.6428 45.9116 86.6428 45.7143C86.6428 45.5171 86.8027 45.3572 87 45.3572" stroke="white" stroke-width="2" stroke-linecap="round" stroke-linejoin="round"/>
<path d="M87 46.0715C87.1972 46.0715 87.3571 45.9116 87.3571 45.7143C87.3571 45.5171 87.1972 45.3572 87 45.3572" stroke="white" stroke-width="2" stroke-linecap="round" stroke-linejoin="round"/>
</g>
<defs>
<clipPath id="clip0_26_127">
<rect width="20" height="20" fill="white" transform="translate(77 40)"/>
</clipPath>
</defs>
</svg>
